<svg width="320" height="160" viewBox="0 0 320 160" xmlns="http://www.w3.org/2000/svg" role="img" aria-labelledby="title desc">
  <title id="title">Mini drive with mouse theme</title>
  <desc id="desc">A simple USB flash drive styled like a mouse face with ears, whiskers, and a tail.</desc>

  <!-- Tail -->
  <path d="M260 90 C 295 85, 305 120, 280 125
           C 255 130, 245 110, 270 105"
        fill="none" stroke="#3a3a3a" stroke-width="3" stroke-linecap="round"/>

  <!-- USB connector -->
  <rect x="35" y="58" width="48" height="44" rx="6" fill="#cfd8dc" stroke="#263238" stroke-width="2"/>
  <rect x="43" y="66" width="12" height="12" rx="2" fill="#90a4ae"/>
  <rect x="63" y="66" width="12" height="12" rx="2" fill="#90a4ae"/>
  <rect x="43" y="82" width="12" height="12" rx="2" fill="#90a4ae"/>
  <rect x="63" y="82" width="12" height="12" rx="2" fill="#90a4ae"/>

  <!-- Drive body -->
  <rect x="80" y="38" width="190" height="84" rx="20" fill="#f5f5f5" stroke="#263238" stroke-width="2"/>

  <!-- Mouse ears -->
  <circle cx="130" cy="34" r="16" fill="#e0e0e0" stroke="#263238" stroke-width="2"/>
  <circle cx="220" cy="34" r="16" fill="#e0e0e0" stroke="#263238" stroke-width="2"/>

  <!-- Mouse face on the body -->
  <!-- Eyes -->
  <circle cx="155" cy="78" r="5" fill="#263238"/>
  <circle cx="195" cy="78" r="5" fill="#263238"/>
  <!-- Nose -->
  <circle cx="175" cy="88" r="4" fill="#ec407a"/>
  <!-- Whiskers -->
  <path d="M140 88 h26" stroke="#263238" stroke-width="2" stroke-linecap="round"/>
  <path d="M140 96 h22" stroke="#263238" stroke-width="2" stroke-linecap="round"/>
  <path d="M180 88 h26" stroke="#263238" stroke-width="2" stroke-linecap="round"/>
  <path d="M184 96 h22" stroke="#263238" stroke-width="2" stroke-linecap="round"/>

  <!-- Subtle highlight -->
  <ellipse cx="240" cy="54" rx="18" ry="6" fill="white" opacity="0.35"/>
</svg>
